<svg id="visual" viewBox="0 0 900 600" width="900" height="600" xmlns="http://www.w3.org/2000/svg" xmlns:xlink="http://www.w3.org/1999/xlink" version="1.1"><path d="M0 79L37.5 74C75 69 150 59 225 61C300 63 375 77 450 81C525 85 600 79 675 79C750 79 825 85 862.5 88L900 91L900 0L862.5 0C825 0 750 0 675 0C600 0 525 0 450 0C375 0 300 0 225 0C150 0 75 0 37.5 0L0 0Z" fill="#003435"></path><path d="M0 85L37.5 89C75 93 150 101 225 113C300 125 375 141 450 145C525 149 600 141 675 137C750 133 825 133 862.5 133L900 133L900 89L862.5 86C825 83 750 77 675 77C600 77 525 83 450 79C375 75 300 61 225 59C150 57 75 67 37.5 72L0 77Z" fill="#003f3e"></path><path d="M0 109L37.5 119C75 129 150 149 225 174C300 199 375 229 450 224C525 219 600 179 675 177C750 175 825 211 862.5 229L900 247L900 131L862.5 131C825 131 750 131 675 135C600 139 525 147 450 143C375 139 300 123 225 111C150 99 75 91 37.5 87L0 83Z" fill="#004b48"></path><path d="M0 151L37.5 160C75 169 150 187 225 205C300 223 375 241 450 235C525 229 600 199 675 198C750 197 825 225 862.5 239L900 253L900 245L862.5 227C825 209 750 173 675 175C600 177 525 217 450 222C375 227 300 197 225 172C150 147 75 127 37.5 117L0 107Z" fill="#005751"></path><path d="M0 205L37.5 215C75 225 150 245 225 257C300 269 375 273 450 261C525 249 600 221 675 227C750 233 825 273 862.5 293L900 313L900 251L862.5 237C825 223 750 195 675 196C600 197 525 227 450 233C375 239 300 221 225 203C150 185 75 167 37.5 158L0 149Z" fill="#005953"></path><path d="M0 241L37.5 257C75 273 150 305 225 317C300 329 375 321 450 306C525 291 600 269 675 283C750 297 825 347 862.5 372L900 397L900 311L862.5 291C825 271 750 231 675 225C600 219 525 247 450 259C375 271 300 267 225 255C150 243 75 223 37.5 213L0 203Z" fill="#005751"></path><path d="M0 457L37.5 463C75 469 150 481 225 483C300 485 375 477 450 461C525 445 600 421 675 425C750 429 825 461 862.5 477L900 493L900 395L862.5 370C825 345 750 295 675 281C600 267 525 289 450 304C375 319 300 327 225 315C150 303 75 271 37.5 255L0 239Z" fill="#004b48"></path><path d="M0 583L37.5 571C75 559 150 535 225 519C300 503 375 495 450 494C525 493 600 499 675 512C750 525 825 545 862.5 555L900 565L900 491L862.5 475C825 459 750 427 675 423C600 419 525 443 450 459C375 475 300 483 225 481C150 479 75 467 37.5 461L0 455Z" fill="#003f3e"></path><path d="M0 601L37.5 601C75 601 150 601 225 601C300 601 375 601 450 601C525 601 600 601 675 601C750 601 825 601 862.5 601L900 601L900 563L862.5 553C825 543 750 523 675 510C600 497 525 491 450 492C375 493 300 501 225 517C150 533 75 557 37.5 569L0 581Z" fill="#003435"></path></svg>